<svg width="96" height="96" xmlns="http://www.w3.org/2000/svg" xmlns:xlink="http://www.w3.org/1999/xlink" xml:space="preserve" overflow="hidden"><g transform="translate(-592 -312)"><path d="M669.17 361.39C674.141 361.39 678.17 357.361 678.17 352.39 678.17 347.419 674.141 343.39 669.17 343.39 664.199 343.39 660.17 347.419 660.17 352.39 660.171 352.842 660.208 353.294 660.28 353.74L649.87 358.09C648.003 354.796 644.739 352.529 641 351.93L641 340.75C645.846 339.645 648.88 334.821 647.775 329.975 646.67 325.129 641.846 322.095 637 323.2 632.154 324.305 629.12 329.129 630.225 333.975 630.994 337.348 633.627 339.981 637 340.75L637 351.92C633.296 352.519 630.057 354.751 628.18 358L618.05 353.77C618.809 348.858 615.443 344.26 610.531 343.501 605.619 342.741 601.021 346.108 600.261 351.02 599.502 355.932 602.868 360.53 607.781 361.289 611.177 361.814 614.576 360.36 616.54 357.54L626.76 361.72C626.035 365.22 626.851 368.863 629 371.72L620.73 380.07C616.5 377.46 610.955 378.773 608.345 383.003 605.734 387.233 607.048 392.778 611.278 395.388 615.508 397.999 621.053 396.685 623.663 392.455 625.487 389.499 625.447 385.757 623.56 382.84L631.89 374.51C636.168 377.482 641.842 377.482 646.12 374.51L654.45 382.83C651.747 387.002 652.938 392.574 657.11 395.277 661.281 397.98 666.854 396.789 669.557 392.617 672.259 388.446 671.068 382.873 666.897 380.17 663.959 378.267 660.185 378.24 657.22 380.1L649 371.77C650.65 369.61 651.542 366.968 651.54 364.25 651.536 363.434 651.456 362.621 651.3 361.82L661.81 357.52C663.485 359.934 666.232 361.379 669.17 361.39ZM669.17 346.88C670.567 346.88 671.7 348.013 671.7 349.41 671.7 350.807 670.567 351.94 669.17 351.94 667.773 351.94 666.64 350.807 666.64 349.41 666.64 349.407 666.64 349.403 666.64 349.4 666.651 348.009 667.779 346.885 669.17 346.88ZM664.17 355.08C664.18 354.687 664.367 354.319 664.68 354.08 665.428 353.546 666.259 353.141 667.14 352.88 667.816 352.684 668.516 352.579 669.22 352.57 669.925 352.571 670.626 352.675 671.3 352.88 672.19 353.116 673.026 353.523 673.76 354.08 674.067 354.323 674.25 354.689 674.26 355.08L674.26 357 664.12 357ZM609.22 346.88C610.617 346.88 611.75 348.013 611.75 349.41 611.75 350.807 610.617 351.94 609.22 351.94 607.823 351.94 606.69 350.807 606.69 349.41 606.69 349.407 606.69 349.403 606.69 349.4 606.7 348.028 607.798 346.912 609.17 346.88ZM614.22 357.01 604.12 357.01 604.12 355.08C604.13 354.687 604.317 354.319 604.63 354.08 605.378 353.546 606.209 353.141 607.09 352.88 607.766 352.684 608.466 352.579 609.17 352.57 609.875 352.571 610.576 352.675 611.25 352.88 612.141 353.116 612.976 353.523 613.71 354.08 614.017 354.323 614.2 354.689 614.21 355.08ZM616 382.22C617.392 382.22 618.52 383.348 618.52 384.74 618.52 386.132 617.392 387.26 616 387.26 614.608 387.26 613.48 386.132 613.48 384.74 613.48 383.348 614.608 382.22 616 382.22ZM621 392.34 611 392.34 611 390.41C611.009 390.019 611.192 389.652 611.5 389.41 612.247 388.878 613.079 388.475 613.96 388.22 614.623 388.021 615.308 387.91 616 387.89 616.705 387.893 617.406 388.001 618.08 388.21 618.97 388.441 619.806 388.846 620.54 389.4 620.848 389.642 621.031 390.009 621.04 390.4ZM639 326.47C640.392 326.47 641.52 327.598 641.52 328.99 641.52 330.382 640.392 331.51 639 331.51 637.612 331.51 636.485 330.388 636.48 329 636.474 327.608 637.598 326.475 638.99 326.47 638.993 326.47 638.997 326.47 639 326.47ZM634 336.59 634 334.66C634.009 334.269 634.192 333.902 634.5 333.66 635.247 333.128 636.079 332.725 636.96 332.47 637.623 332.271 638.308 332.16 639 332.14 639.705 332.143 640.406 332.251 641.08 332.46 641.97 332.691 642.806 333.096 643.54 333.65 643.848 333.892 644.031 334.259 644.04 334.65L644.04 336.58ZM639 356.59C640.938 356.585 642.515 358.151 642.52 360.09 642.526 362.029 640.958 363.604 639.02 363.61 637.081 363.616 635.505 362.048 635.5 360.11 635.5 360.107 635.5 360.103 635.5 360.1 635.5 358.165 637.065 356.595 639 356.59ZM646 370.66 632 370.66 632 368C632.013 367.452 632.27 366.939 632.7 366.6 633.738 365.855 634.894 365.29 636.12 364.93 637.056 364.654 638.024 364.503 639 364.48 639.979 364.483 640.953 364.628 641.89 364.91 643.13 365.232 644.293 365.8 645.31 366.58 645.742 366.926 645.995 367.447 646 368ZM662 382.22C663.392 382.22 664.52 383.348 664.52 384.74 664.52 386.132 663.392 387.26 662 387.26 660.608 387.26 659.48 386.132 659.48 384.74 659.48 383.348 660.608 382.22 662 382.22ZM657 390.41C657.009 390.019 657.192 389.652 657.5 389.41 658.247 388.878 659.079 388.475 659.96 388.22 660.623 388.021 661.308 387.91 662 387.89 662.705 387.893 663.406 388.001 664.08 388.21 664.97 388.441 665.806 388.846 666.54 389.4 666.848 389.642 667.031 390.009 667.04 390.4L667.04 392.33 657 392.33Z"/></g></svg>