<svg width="223" height="222" xmlns="http://www.w3.org/2000/svg" xmlns:xlink="http://www.w3.org/1999/xlink" xml:space="preserve" overflow="hidden"><defs><clipPath id="clip0"><rect x="818" y="249" width="223" height="222"/></clipPath></defs><g clip-path="url(#clip0)" transform="translate(-818 -249)"><path d="M79.8361 76.365 86.7784 76.365 86.7784 83.3073 79.8361 83.3073Z" transform="matrix(1.00381 0 0 1 818 249)"/><path d="M79.8361 90.2495 86.7784 90.2495 86.7784 97.1918 79.8361 97.1918Z" transform="matrix(1.00381 0 0 1 818 249)"/><path d="M79.8361 104.134 86.7784 104.134 86.7784 111.076 79.8361 111.076Z" transform="matrix(1.00381 0 0 1 818 249)"/><path d="M79.8361 118.019 86.7784 118.019 86.7784 124.961 79.8361 124.961Z" transform="matrix(1.00381 0 0 1 818 249)"/><path d="M93.7207 76.365 100.663 76.365 100.663 83.3073 93.7207 83.3073Z" transform="matrix(1.00381 0 0 1 818 249)"/><path d="M93.7207 90.2495 100.663 90.2495 100.663 97.1918 93.7207 97.1918Z" transform="matrix(1.00381 0 0 1 818 249)"/><path d="M93.7207 104.134 100.663 104.134 100.663 111.076 93.7207 111.076Z" transform="matrix(1.00381 0 0 1 818 249)"/><path d="M93.7207 118.019 100.663 118.019 100.663 124.961 93.7207 124.961Z" transform="matrix(1.00381 0 0 1 818 249)"/><path d="M107.605 76.365 114.548 76.365 114.548 83.3073 107.605 83.3073Z" transform="matrix(1.00381 0 0 1 818 249)"/><path d="M107.605 90.2495 114.548 90.2495 114.548 97.1918 107.605 97.1918Z" transform="matrix(1.00381 0 0 1 818 249)"/><path d="M107.605 104.134 114.548 104.134 114.548 111.076 107.605 111.076Z" transform="matrix(1.00381 0 0 1 818 249)"/><path d="M107.605 118.019 114.548 118.019 114.548 124.961 107.605 124.961Z" transform="matrix(1.00381 0 0 1 818 249)"/><path d="M121.49 76.365 128.432 76.365 128.432 83.3073 121.49 83.3073Z" transform="matrix(1.00381 0 0 1 818 249)"/><path d="M93.7207 62.4805 100.663 62.4805 100.663 69.4227 93.7207 69.4227Z" transform="matrix(1.00381 0 0 1 818 249)"/><path d="M107.605 62.4805 114.548 62.4805 114.548 69.4227 107.605 69.4227Z" transform="matrix(1.00381 0 0 1 818 249)"/><path d="M121.49 62.4805 128.432 62.4805 128.432 69.4227 121.49 69.4227Z" transform="matrix(1.00381 0 0 1 818 249)"/><path d="M121.49 90.2495 128.432 90.2495 128.432 97.1918 121.49 97.1918Z" transform="matrix(1.00381 0 0 1 818 249)"/><path d="M121.49 104.134 128.432 104.134 128.432 111.076 121.49 111.076Z" transform="matrix(1.00381 0 0 1 818 249)"/><path d="M121.49 118.019 128.432 118.019 128.432 124.961 121.49 124.961Z" transform="matrix(1.00381 0 0 1 818 249)"/><path d="M135.374 76.365 142.317 76.365 142.317 83.3073 135.374 83.3073Z" transform="matrix(1.00381 0 0 1 818 249)"/><path d="M135.374 90.2495 142.317 90.2495 142.317 97.1918 135.374 97.1918Z" transform="matrix(1.00381 0 0 1 818 249)"/><path d="M135.374 104.134 142.317 104.134 142.317 111.076 135.374 111.076Z" transform="matrix(1.00381 0 0 1 818 249)"/><path d="M135.374 118.019 142.317 118.019 142.317 124.961 135.374 124.961Z" transform="matrix(1.00381 0 0 1 818 249)"/><path d="M211.739 59.0093 159.672 59.0093 159.672 10.4134C159.672 8.49635 158.118 6.94227 156.201 6.94227L65.9516 6.94227C64.0345 6.94227 62.4805 8.49635 62.4805 10.4134L62.4805 59.0093 10.4134 59.0093C8.49635 59.0093 6.94227 60.5634 6.94227 62.4805L6.94227 187.441C6.94227 189.358 8.49635 190.912 10.4134 190.912L17.6681 190.912C17.4672 192.059 17.3627 193.22 17.3557 194.384L17.3557 211.739C17.3557 213.656 18.9098 215.21 20.8268 215.21L201.326 215.21C203.243 215.21 204.797 213.656 204.797 211.739L204.797 194.384C204.79 193.22 204.686 192.059 204.485 190.912L211.739 190.912C213.656 190.912 215.21 189.358 215.21 187.441L215.21 62.4805C215.21 60.5634 213.656 59.0093 211.739 59.0093ZM156.017 154.67C156.017 154.705 156.041 154.736 156.048 154.771 156.252 155.714 156.252 156.689 156.048 157.631 156.048 157.666 156.028 157.697 156.017 157.732 155.692 159.125 154.944 160.383 153.875 161.335L153.875 161.359C152.611 162.506 150.966 163.142 149.259 163.143 148.77 163.141 148.282 163.087 147.804 162.984 147.645 162.949 147.496 162.887 147.343 162.841 147.04 162.761 146.743 162.66 146.454 162.539 146.267 162.456 146.107 162.345 145.913 162.248 145.673 162.124 145.441 161.986 145.218 161.835 145.038 161.706 144.871 161.561 144.712 161.418 144.514 161.25 144.326 161.07 144.149 160.88 144.002 160.72 143.863 160.552 143.733 160.377 143.574 160.169 143.428 159.953 143.295 159.728 143.181 159.533 143.07 159.339 142.973 159.131 142.871 158.904 142.782 158.673 142.705 158.437 142.629 158.218 142.553 158.003 142.497 157.774 142.445 157.52 142.407 157.264 142.383 157.006 142.355 156.784 142.32 156.566 142.313 156.34 142.316 156.066 142.335 155.793 142.369 155.521 142.389 155.295 142.393 155.066 142.435 154.851 142.546 154.295 142.729 153.756 142.98 153.247 143.059 153.081 143.147 152.919 143.243 152.761 143.489 152.332 143.778 151.929 144.108 151.56 144.174 151.487 144.222 151.408 144.292 151.338 144.702 150.93 145.16 150.573 145.656 150.276 145.798 150.189 145.951 150.113 146.1 150.036 146.564 149.793 147.054 149.606 147.561 149.478 147.638 149.457 147.711 149.425 147.787 149.408 148.376 149.288 148.978 149.246 149.578 149.283 149.783 149.283 149.981 149.318 150.182 149.342 150.559 149.395 150.93 149.479 151.293 149.592 151.425 149.634 151.557 149.668 151.682 149.714 152.48 150.033 153.218 150.487 153.862 151.057 154.937 152.009 155.69 153.272 156.017 154.67ZM66.1147 154.771C66.1147 154.74 66.1356 154.712 66.1425 154.681 66.4661 153.284 67.2143 152.022 68.2842 151.067 68.9323 150.494 69.676 150.038 70.4814 149.721 70.589 149.679 70.7036 149.651 70.8285 149.616 71.2126 149.491 71.6078 149.403 72.0087 149.353 72.1927 149.325 72.3767 149.304 72.5676 149.294 73.1721 149.257 73.7789 149.299 74.3726 149.419 74.4489 149.436 74.5218 149.467 74.5982 149.488 75.1056 149.616 75.5961 149.804 76.0595 150.047 76.2088 150.123 76.3615 150.2 76.5038 150.286 77 150.584 77.4581 150.94 77.868 151.348 77.9374 151.418 77.986 151.498 78.052 151.571 78.3812 151.94 78.6709 152.342 78.9163 152.772 79.0123 152.929 79.1004 153.091 79.1801 153.258 79.4306 153.766 79.6138 154.305 79.7251 154.861 79.7667 155.076 79.7702 155.306 79.791 155.531 79.8249 155.803 79.8435 156.076 79.8465 156.35 79.8465 156.576 79.8049 156.795 79.7771 157.017 79.7531 157.274 79.7148 157.531 79.6626 157.784 79.607 158.013 79.5307 158.228 79.4543 158.447 79.3779 158.683 79.2887 158.915 79.187 159.141 79.0898 159.349 78.9788 159.544 78.8642 159.738 78.7313 159.963 78.5853 160.18 78.4269 160.387 78.2967 160.562 78.1576 160.73 78.0103 160.891 77.8332 161.081 77.6455 161.26 77.448 161.429 77.2814 161.571 77.1217 161.717 76.9412 161.845 76.7182 161.997 76.4864 162.134 76.247 162.258 76.0665 162.355 75.8999 162.467 75.7055 162.55 75.4163 162.67 75.1195 162.771 74.8169 162.852 74.6641 162.897 74.5149 162.959 74.3552 162.994 73.8747 163.095 73.3849 163.145 72.8939 163.143 71.193 163.137 69.5546 162.502 68.2946 161.359L68.2946 161.335C67.2224 160.382 66.4727 159.119 66.1494 157.721 66.1494 157.69 66.1286 157.662 66.1217 157.631 65.918 156.689 65.918 155.714 66.1217 154.771ZM52.067 208.268 24.298 208.268 24.298 194.384C24.3013 191.715 25.0803 189.106 26.5403 186.872 26.7069 186.612 26.8874 186.376 27.0818 186.129 27.3824 185.72 27.7058 185.329 28.0503 184.956 28.2585 184.734 28.4668 184.515 28.6855 184.31 29.1139 183.909 29.5672 183.534 30.0427 183.189 30.2093 183.068 30.362 182.929 30.5321 182.814 31.1782 182.39 31.8586 182.021 32.5662 181.711 32.7953 181.606 33.0313 181.53 33.2604 181.44 33.8092 181.232 34.3703 181.058 34.9405 180.919 35.1904 180.86 35.4368 180.798 35.6902 180.749 37.3304 180.416 39.0207 180.416 40.6609 180.749 40.9143 180.798 41.1607 180.857 41.4107 180.919 41.9818 181.058 42.544 181.232 43.0942 181.44 43.3267 181.53 43.5628 181.606 43.7884 181.711 44.496 182.021 45.1764 182.39 45.8225 182.814 45.9926 182.929 46.1453 183.068 46.3119 183.189 46.7873 183.534 47.2407 183.909 47.6691 184.31 47.8878 184.515 48.0961 184.734 48.3043 184.953 48.649 185.328 48.9734 185.722 49.2763 186.133 49.4568 186.376 49.6511 186.612 49.8143 186.872 51.2779 189.104 52.0606 191.714 52.067 194.384ZM31.2402 166.615C31.2402 162.78 34.3484 159.672 38.1825 159.672 42.0166 159.672 45.1248 162.78 45.1248 166.615 45.1248 170.449 42.0166 173.557 38.1825 173.557 34.3484 173.557 31.2402 170.449 31.2402 166.615ZM57.7736 169.693C57.5792 169.898 57.3883 170.103 57.2043 170.315 56.9336 170.627 56.6767 170.943 56.4268 171.269 56.2532 171.491 56.0797 171.714 55.92 171.943 55.6805 172.29 55.4514 172.637 55.2258 172.984 55.0835 173.213 54.9411 173.439 54.8058 173.678 54.5871 174.057 54.3892 174.449 54.1983 174.841 54.0872 175.067 53.9727 175.289 53.872 175.535 53.6846 175.952 53.5249 176.379 53.3618 176.809 53.2785 177.035 53.1917 177.257 53.1153 177.504 52.9695 177.941 52.8515 178.385 52.737 178.836 52.6884 179.02 52.6259 179.184 52.5808 179.385 52.4211 179.229 52.2337 179.093 52.0775 178.944 51.7963 178.691 51.5186 178.437 51.2236 178.201 51.0083 178.028 50.7827 177.854 50.5606 177.705 50.2482 177.472 49.9358 177.236 49.613 177.011 49.4012 176.872 49.1791 176.747 48.9638 176.618 48.7486 176.49 48.4744 176.306 48.221 176.167 53.5166 170.621 53.3135 161.832 47.7675 156.537 42.2215 151.241 33.4326 151.444 28.137 156.99 23.0136 162.356 23.0136 170.801 28.137 176.167 28.0607 176.209 27.9912 176.257 27.9149 176.299 27.7587 176.389 27.6059 176.49 27.4532 176.584 26.8863 176.924 26.3401 177.289 25.8148 177.681 25.6517 177.802 25.4886 177.92 25.3289 178.028 24.0251 179.057 22.8472 180.236 21.8196 181.54L21.5245 181.936C21.0786 182.533 20.6638 183.153 20.2819 183.793 20.2471 183.856 20.1985 183.911 20.1638 183.974L13.8845 183.974 13.8845 65.9516 62.4805 65.9516 62.4805 147.072C62.3798 147.187 62.3104 147.322 62.2132 147.437 61.8137 147.913 61.4462 148.415 61.1128 148.94 60.9775 149.158 60.8664 149.394 60.7414 149.634 60.4567 150.134 60.2039 150.653 59.9847 151.185 59.8493 151.532 59.7626 151.88 59.6376 152.258 59.5057 152.706 59.3495 153.14 59.2592 153.608 58.9075 155.326 58.9075 157.097 59.2592 158.815 59.3495 159.284 59.5057 159.717 59.6376 160.165 59.7487 160.512 59.8354 160.891 59.9847 161.238 60.2039 161.77 60.4567 162.289 60.7414 162.789 60.8664 163.018 60.9775 163.254 61.1128 163.484 61.4462 164.008 61.8137 164.51 62.2132 164.987 62.3104 165.101 62.3798 165.237 62.4805 165.351L62.4805 165.972C62.3867 166.024 62.3069 166.09 62.2132 166.142 61.7515 166.424 61.2968 166.712 60.856 167.028 60.6755 167.153 60.5088 167.288 60.3318 167.42 59.9604 167.701 59.5994 167.989 59.2523 168.291 59.051 168.465 58.8601 168.638 58.6691 168.822 58.3602 169.089 58.0617 169.391 57.7736 169.693ZM86.7784 208.268 59.0093 208.268 59.0093 183.97C59.0182 183.136 59.1019 182.304 59.2592 181.485 59.3078 181.231 59.3668 180.985 59.4293 180.735 59.5687 180.164 59.7426 179.602 59.95 179.052 60.0402 178.819 60.1166 178.583 60.2207 178.357 60.5313 177.65 60.9005 176.969 61.3246 176.323 61.4391 176.153 61.578 176 61.6994 175.834 62.0444 175.358 62.4188 174.905 62.8206 174.477 63.0254 174.258 63.2441 174.05 63.4628 173.841 63.8387 173.497 64.2326 173.172 64.643 172.87 64.886 172.689 65.122 172.495 65.3823 172.331 67.6154 170.87 70.2252 170.09 72.8939 170.086 80.5621 170.086 86.7784 176.302 86.7784 183.97ZM128.432 208.268 93.7207 208.268 93.7207 183.97C93.7207 174.385 101.491 166.615 111.076 166.615 120.662 166.615 128.432 174.385 128.432 183.97ZM100.663 149.259C100.663 143.508 105.325 138.845 111.076 138.845 116.828 138.845 121.49 143.508 121.49 149.259 121.49 155.01 116.828 159.672 111.076 159.672 105.325 159.672 100.663 155.01 100.663 149.259ZM134.034 169.805C133.847 170.006 133.66 170.207 133.479 170.415 133.16 170.79 132.858 171.176 132.563 171.571 132.452 171.721 132.327 171.856 132.216 172.009 132.139 171.873 132.039 171.752 131.959 171.62 131.573 170.971 131.164 170.343 130.72 169.732 130.556 169.509 130.393 169.287 130.22 169.065 129.731 168.436 129.213 167.834 128.665 167.26 128.557 167.146 128.456 167.021 128.349 166.913 127.684 166.244 126.982 165.613 126.245 165.025 126.054 164.876 125.856 164.737 125.662 164.591 125.082 164.154 124.485 163.74 123.868 163.359 123.628 163.209 123.392 163.06 123.149 162.918 122.854 162.748 122.555 162.571 122.253 162.425 129.585 156.25 130.522 145.301 124.348 137.97 118.173 130.638 107.224 129.701 99.8924 135.876 92.561 142.05 91.6234 152.999 97.7983 160.331 98.4354 161.087 99.136 161.788 99.8924 162.425 99.5904 162.581 99.2919 162.748 98.9968 162.918 98.7538 163.06 98.5143 163.209 98.2748 163.359 97.6616 163.743 97.0657 164.152 96.4872 164.587 96.2893 164.737 96.0915 164.872 95.9006 165.025 95.1638 165.613 94.4615 166.244 93.797 166.913 93.6894 167.024 93.5888 167.149 93.4812 167.26 92.9327 167.836 92.4144 168.438 91.9261 169.065 91.7525 169.287 91.579 169.509 91.4263 169.735 90.982 170.343 90.5724 170.971 90.1871 171.62 90.1072 171.752 90.0066 171.873 89.9302 172.009 89.8226 171.856 89.6976 171.721 89.5831 171.571 89.288 171.176 88.9861 170.79 88.6667 170.415 88.4862 170.207 88.2988 170.006 88.1113 169.805 87.792 169.457 87.4622 169.131 87.1221 168.812 86.9207 168.621 86.7194 168.433 86.5111 168.253 86.1467 167.937 85.7648 167.635 85.3795 167.343 85.1782 167.194 84.9804 167.035 84.7721 166.892 84.3104 166.569 83.8279 166.271 83.3385 165.986 83.2135 165.91 83.0955 165.823 82.9671 165.75 83.1511 165.556 83.3142 165.358 83.5051 165.15 83.696 164.941 83.7481 164.757 83.8904 164.574 84.2213 164.14 84.525 163.687 84.7999 163.216 85.0081 162.869 85.2095 162.522 85.3865 162.14 85.6247 161.623 85.831 161.092 86.0043 160.55 86.1258 160.203 86.2543 159.832 86.3515 159.457 86.4814 158.876 86.5741 158.287 86.6292 157.694 86.6673 157.312 86.7333 156.944 86.7437 156.559 86.7437 156.437 86.7784 156.323 86.7784 156.212 86.7552 155.72 86.7053 155.23 86.6292 154.743 86.5979 154.427 86.6292 154.112 86.5701 153.796 86.5701 153.709 86.525 153.629 86.5077 153.546 86.4799 153.393 86.4313 153.247 86.3966 153.094 86.2397 152.403 86.0285 151.725 85.7648 151.067 85.6989 150.904 85.6329 150.741 85.56 150.581 85.2576 149.896 84.9 149.237 84.4909 148.61 84.4458 148.544 84.4111 148.471 84.366 148.405 83.8811 147.697 83.3339 147.034 82.7311 146.423 82.6929 146.388 82.6512 146.357 82.6165 146.322 82.0659 145.784 81.4714 145.293 80.8393 144.854L80.4054 144.566C79.8163 144.185 79.199 143.85 78.5588 143.563 78.4269 143.504 78.3019 143.434 78.17 143.382 77.4191 143.064 76.6406 142.815 75.8443 142.639 75.8154 142.638 75.7865 142.638 75.7576 142.639 74.817 142.431 73.8571 142.323 72.8939 142.317 72.8279 142.317 72.7689 142.334 72.7064 142.334 72.4704 142.334 72.2413 142.389 72.0122 142.407 71.2318 142.449 70.4562 142.556 69.6935 142.726 69.6067 142.747 69.5164 142.726 69.4297 142.764L69.4297 13.8845 152.73 13.8845 152.73 142.764C152.643 142.74 152.553 142.764 152.466 142.726 151.714 142.559 150.949 142.453 150.179 142.41 149.929 142.393 149.689 142.337 149.439 142.334 149.38 142.334 149.321 142.317 149.259 142.317 148.296 142.317 147.336 142.42 146.395 142.622 146.366 142.62 146.337 142.62 146.308 142.622 145.512 142.798 144.734 143.047 143.983 143.365 143.851 143.417 143.726 143.486 143.594 143.545 142.954 143.832 142.336 144.168 141.747 144.549L141.313 144.837C140.681 145.276 140.087 145.767 139.536 146.305 139.501 146.34 139.46 146.371 139.422 146.406 138.819 147.016 138.272 147.68 137.787 148.388 137.742 148.454 137.707 148.526 137.662 148.592 137.253 149.22 136.895 149.879 136.593 150.564 136.52 150.724 136.454 150.887 136.388 151.05 136.124 151.708 135.913 152.386 135.756 153.077 135.721 153.23 135.673 153.376 135.645 153.528 135.628 153.612 135.596 153.691 135.583 153.778 135.527 154.094 135.555 154.41 135.524 154.726 135.447 155.215 135.397 155.707 135.374 156.201 135.374 156.323 135.409 156.437 135.409 156.548 135.409 156.934 135.485 157.301 135.524 157.683 135.579 158.276 135.671 158.865 135.801 159.447 135.892 159.822 136.02 160.176 136.148 160.54 136.322 161.082 136.528 161.613 136.766 162.13 136.943 162.501 137.145 162.852 137.353 163.206 137.628 163.677 137.931 164.13 138.262 164.563 138.405 164.747 138.498 164.962 138.648 165.139 138.797 165.316 138.995 165.545 139.186 165.74 139.057 165.813 138.939 165.899 138.814 165.976 138.325 166.26 137.842 166.559 137.381 166.882 137.172 167.024 136.975 167.184 136.773 167.333 136.388 167.625 136.006 167.927 135.642 168.243 135.433 168.423 135.232 168.61 135.031 168.801 134.68 169.131 134.354 169.461 134.034 169.805ZM163.143 187.441 163.143 208.268 135.374 208.268 135.374 183.97C135.374 176.302 141.591 170.086 149.259 170.086 151.927 170.089 154.537 170.868 156.77 172.328 157.031 172.491 157.267 172.675 157.51 172.866 157.92 173.169 158.314 173.493 158.69 173.838 158.909 174.046 159.127 174.255 159.332 174.473 159.734 174.902 160.108 175.355 160.453 175.83 160.575 175.997 160.714 176.15 160.828 176.32 161.252 176.966 161.621 177.646 161.932 178.354 162.036 178.583 162.112 178.819 162.203 179.048 162.41 179.598 162.584 180.16 162.723 180.732 162.786 180.982 162.845 181.228 162.893 181.481 163.051 182.302 163.135 183.135 163.143 183.97ZM197.855 208.268 170.086 208.268 170.086 194.384C170.089 191.715 170.868 189.106 172.328 186.872 172.495 186.612 172.675 186.376 172.87 186.129 173.17 185.72 173.493 185.329 173.838 184.956 174.046 184.734 174.255 184.515 174.473 184.31 174.902 183.909 175.355 183.534 175.83 183.189 175.997 183.068 176.15 182.929 176.32 182.814 176.966 182.39 177.646 182.021 178.354 181.711 178.583 181.606 178.819 181.53 179.048 181.44 179.597 181.232 180.158 181.058 180.728 180.919 180.978 180.86 181.225 180.798 181.478 180.749 183.118 180.416 184.808 180.416 186.449 180.749 186.702 180.798 186.948 180.857 187.198 180.919 187.77 181.058 188.332 181.232 188.882 181.44 189.114 181.53 189.35 181.606 189.576 181.711 190.284 182.021 190.964 182.39 191.61 182.814 191.78 182.929 191.933 183.068 192.1 183.189 192.575 183.534 193.028 183.909 193.457 184.31 193.676 184.515 193.884 184.734 194.092 184.953 194.437 185.328 194.761 185.722 195.064 186.133 195.244 186.376 195.439 186.612 195.602 186.872 197.066 189.104 197.848 191.714 197.855 194.384ZM177.028 166.615C177.028 162.78 180.136 159.672 183.97 159.672 187.804 159.672 190.912 162.78 190.912 166.615 190.912 170.449 187.804 173.557 183.97 173.557 180.136 173.557 177.028 170.449 177.028 166.615ZM208.268 183.97 201.989 183.97C201.954 183.908 201.906 183.852 201.871 183.79 201.489 183.15 201.074 182.53 200.628 181.933L200.333 181.537C199.302 180.233 198.121 179.055 196.813 178.028 196.654 177.903 196.491 177.785 196.327 177.681 195.8 177.289 195.254 176.924 194.689 176.584 194.536 176.49 194.384 176.389 194.227 176.299 194.151 176.257 194.082 176.209 194.005 176.167 199.301 170.621 199.098 161.832 193.552 156.537 188.006 151.241 179.217 151.444 173.921 156.99 168.798 162.356 168.798 170.801 173.921 176.167 173.664 176.309 173.425 176.469 173.175 176.618 172.925 176.768 172.741 176.872 172.533 177.011 172.207 177.226 171.894 177.462 171.582 177.705 171.36 177.868 171.134 178.028 170.919 178.201 170.624 178.437 170.346 178.691 170.065 178.944 169.898 179.093 169.718 179.229 169.562 179.385 169.516 179.197 169.454 179.038 169.405 178.836 169.291 178.385 169.173 177.941 169.027 177.504 168.951 177.274 168.864 177.052 168.781 176.809 168.621 176.379 168.458 175.952 168.27 175.535 168.17 175.303 168.055 175.081 167.944 174.841 167.753 174.449 167.555 174.057 167.337 173.678 167.201 173.442 167.059 173.217 166.917 172.984 166.694 172.637 166.465 172.29 166.222 171.943 166.059 171.714 165.875 171.491 165.716 171.269 165.466 170.943 165.209 170.627 164.938 170.315 164.754 170.103 164.563 169.898 164.369 169.693 164.081 169.385 163.782 169.089 163.473 168.801 163.282 168.621 163.091 168.454 162.89 168.27 162.543 167.968 162.196 167.68 161.811 167.399 161.637 167.267 161.463 167.132 161.286 167.007 160.846 166.691 160.391 166.403 159.929 166.122 159.835 166.07 159.756 166.004 159.662 165.952L159.662 165.33C159.763 165.216 159.832 165.08 159.929 164.966 160.329 164.49 160.696 163.987 161.029 163.463 161.165 163.244 161.276 163.008 161.401 162.769 161.686 162.268 161.938 161.75 162.158 161.217 162.293 160.87 162.38 160.523 162.505 160.144 162.637 159.697 162.793 159.263 162.883 158.794 163.235 157.076 163.235 155.305 162.883 153.587 162.793 153.119 162.637 152.685 162.505 152.237 162.394 151.89 162.307 151.512 162.158 151.165 161.938 150.632 161.686 150.114 161.401 149.613 161.276 149.384 161.165 149.148 161.029 148.919 160.696 148.394 160.329 147.892 159.929 147.416 159.832 147.301 159.763 147.166 159.662 147.051L159.662 65.9516 208.268 65.9516Z" transform="matrix(1.00381 0 0 1 818 249)"/><path d="M170.086 86.7784 177.028 86.7784 177.028 142.317 170.086 142.317Z" transform="matrix(1.00381 0 0 1 818 249)"/><path d="M190.912 86.7784 197.855 86.7784 197.855 142.317 190.912 142.317Z" transform="matrix(1.00381 0 0 1 818 249)"/><path d="M24.298 86.7784 31.2402 86.7784 31.2402 142.317 24.298 142.317Z" transform="matrix(1.00381 0 0 1 818 249)"/><path d="M45.1248 86.7784 52.067 86.7784 52.067 142.317 45.1248 142.317Z" transform="matrix(1.00381 0 0 1 818 249)"/><path d="M135.374 24.298C135.374 22.3809 133.82 20.8268 131.903 20.8268L90.2495 20.8268C88.3325 20.8268 86.7784 22.3809 86.7784 24.298L86.7784 52.067C86.7784 53.9841 88.3325 55.5382 90.2495 55.5382L131.903 55.5382C133.82 55.5382 135.374 53.9841 135.374 52.067ZM128.432 48.5959 93.7207 48.5959 93.7207 27.7691 128.432 27.7691Z" transform="matrix(1.00381 0 0 1 818 249)"/><text font-family="Arial,Arial_MSFontService,sans-serif" font-weight="700" font-size="5" transform="matrix(3.48438 0 0 3.47114 818 523)">Created by Nithinan Tatah</text><text font-family="Arial,Arial_MSFontService,sans-serif" font-weight="700" font-size="5" transform="matrix(3.48438 0 0 3.47114 818 541)">from the Noun Project</text></g></svg>